<?xml version="1.0" standalone="no"?>
<!DOCTYPE svg PUBLIC "-//W3C//DTD SVG 20010904//EN"
 "http://www.w3.org/TR/2001/REC-SVG-20010904/DTD/svg10.dtd">
<svg version="1.0" xmlns="http://www.w3.org/2000/svg"
 width="700.000000pt" height="700.000000pt" viewBox="0 0 700.000000 700.000000"
 preserveAspectRatio="xMidYMid meet">
<metadata>
Created by potrace 1.14, written by Peter Selinger 2001-2017
</metadata>
<g transform="translate(0.000000,700.000000) scale(0.100000,-0.100000)"
fill="#000000" stroke="none">
<path d="M508 4893 c-15 -16 -16 -147 -16 -1420 l0 -1402 357 0 357 0 0 784
c-1 432 1 785 4 785 3 0 73 -98 156 -218 83 -119 281 -404 440 -632 159 -228
296 -425 304 -437 8 -12 130 -185 270 -385 140 -200 270 -386 290 -414 229
-333 261 -374 288 -375 15 -1 164 -2 331 -3 266 -1 307 1 324 15 20 16 20 34
20 1854 0 1777 0 1838 -18 1851 -15 11 -85 14 -337 14 -292 0 -319 -1 -336
-18 -17 -17 -18 -79 -17 -1234 0 -670 -4 -1213 -8 -1209 -5 5 -145 204 -312
442 -166 239 -313 448 -325 464 -21 30 -582 831 -668 955 -25 36 -53 75 -61
86 -9 12 -22 30 -29 40 -7 11 -83 120 -170 244 l-158 225 -335 3 c-311 2 -336
1 -351 -15z"/>
<path d="M3807 4892 c-16 -17 -17 -94 -17 -1109 l0 -1091 693 0 c380 -1 710
-4 732 -7 302 -49 448 -185 446 -415 -2 -189 -123 -325 -338 -380 -107 -28
-186 -33 -515 -33 -207 0 -298 -4 -299 -11 -6 -50 -4 -653 2 -661 9 -12 632
-12 734 -1 327 37 542 108 735 245 247 174 384 445 395 783 11 367 -171 662
-496 803 l-66 28 74 38 c132 68 247 174 318 293 32 53 74 146 80 175 1 9 8 35
14 58 48 176 27 457 -45 642 -51 127 -96 195 -204 303 -63 62 -232 188 -253
188 -3 0 -40 16 -82 35 -82 38 -238 84 -375 111 -73 15 -184 18 -800 21 -692
4 -716 4 -733 -15z m1313 -656 c223 -20 385 -113 455 -261 36 -77 44 -214 17
-293 -53 -155 -212 -259 -441 -287 -23 -3 -422 -7 -588 -5 l-63 0 0 424 c0
389 1 425 17 428 28 5 533 0 603 -6z"/>
</g>
</svg>
